<svg width="133" height="27" viewBox="0 0 133 27" xmlns="http://www.w3.org/2000/svg" aria-labelledby="title" role="img"><title>The Traveling Twins</title><g fill="#494949"><g><path d="M16.623 19.126c0 .346.316.634.632.634h2.212c.431 0 .747-.144.747-.634v-8.294c.23-.461 1.092-1.382 2.528-1.382.603 0 .919.115 1.235.259.316.144.632.029.776-.288l.862-1.958c.373-.864-.919-1.296-2.499-1.296-2.04 0-3.275 1.354-3.734 2.016l-.488-1.296c-.115-.288-.259-.432-.575-.432h-1.063c-.316 0-.632.259-.632.634v12.038zM29.013 15.326c0 2.851 1.838 4.55 4.481 4.55 2.068 0 3.39-.922 4.165-1.67l.373.893c.172.374.345.461.575.461h.977c.345 0 .632-.288.632-.634v-7.171c0-3.629-.862-5.789-4.998-5.789-2.154 0-4.252.547-4.539.662-.287.086-.546.317-.431.806l.287 1.498c.057.403.316.72.747.576.776-.23 2.528-.49 3.734-.49 1.408 0 1.896.806 1.838 2.506 0 0-1.207-.374-2.557-.374-3.361 0-5.286 1.814-5.286 4.176zm3.447 0c0-1.181.833-1.901 2.356-1.901 1.063 0 1.953.403 1.953.403v1.958c-.172.49-1.207 1.411-2.384 1.411-1.235 0-1.925-.749-1.925-1.872zM65.965 13.307c0 3.802 2.758 6.97 6.722 6.97 2.154 0 3.792-.835 4.941-1.814.316-.288.287-.605.057-.864l-1.12-1.498c-.201-.288-.546-.259-.862 0-.603.49-1.523.979-2.844.979-1.925 0-3.275-1.44-3.304-3.082h8.503c.287 0 .603-.259.632-.605.029-.202.057-.662.057-.864 0-3.6-2.643-6.163-6.09-6.163-3.936 0-6.693 3.197-6.693 6.941zm3.792-1.67c.172-1.325 1.207-2.304 2.815-2.304 1.465 0 2.499 1.008 2.557 2.304h-5.372zM84.014 19.546c0 .335.316.615.632.615h2.327c.316 0 .632-.279.632-.615v-18.332c0-.307-.316-.615-.632-.615h-2.327c-.316 0-.632.307-.632.615v18.332z" id="Path" opacity=".599"/><g><path d="M93.425 19.526c0 .346.316.634.632.634h2.327c.316 0 .632-.288.632-.634v-12.038c0-.374-.316-.634-.632-.634h-2.327c-.316 0-.632.259-.632.634v12.038z" id="Path"/><path d="M95.087 4.582c1.124 0 1.998-.902 1.998-2.003 0-1.102-.874-1.978-1.998-1.978s-1.973.877-1.973 1.978c0 1.102.849 2.003 1.973 2.003z"/></g><path d="M102.847 19.526c0 .346.316.634.632.634h2.126c.632 0 .833-.144.833-.634v-7.603c.316-.922 1.149-2.074 2.873-2.074 1.609 0 2.298 1.066 2.298 2.794v6.883c0 .346.287.634.632.634h2.327c.316 0 .632-.288.632-.634v-6.883c0-3.226-1.092-6.077-5.314-6.077-2.557 0-3.792 1.382-4.28 1.93l-.488-1.238c-.086-.259-.23-.403-.546-.403h-1.092c-.316 0-.632.259-.632.634v12.038z" id="Path"/><path d="M132.403 7.312c0-.342-.287-.627-.632-.627h-1.063c-.316 0-.517.257-.632.627l-.345 1.055s-1.523-1.968-4.338-1.968c-3.62 0-6.349 2.908-6.349 6.901 0 3.849 2.614 6.872 6.578 6.872 1.321 0 2.585-.314 3.189-.542v.371c0 2.452-1.092 3.137-3.131 3.137-1.379 0-2.672-.713-3.16-.998-.287-.171-.661-.086-.776.171l-.862 1.853c-.144.228-.057.57.144.741.632.485 2.585 1.483 4.769 1.483 3.62 0 6.607-2.139 6.607-6.387v-12.689zm-3.591 8.868s-1.092.741-2.758.741c-2.183 0-3.304-1.768-3.304-3.621s1.063-3.65 3.131-3.65c1.724 0 2.643 1.084 2.93 1.825v4.705z" id="Path" opacity=".599"/><path d="M5.53 19.213c0 .288.259.547.546.547h2.672c.287 0 .546-.259.546-.547v-15.557h4.395c.316 0 .546-.259.546-.547v-2.362c0-.288-.23-.547-.546-.547h-12.553c-.316 0-.546.259-.546.547v2.362c0 .288.23.547.546.547h4.395v15.557z" id="Path"/></g><g><path d="M53.088 15.738l-1.859 3.917c-.114.173-.286.345-.572.345h-.172c-.286 0-.458-.173-.572-.345l-6.549-12.479c-.229-.403-.029-.776.458-.776h1.588c.372 0 .658.029.83.374l4.332 7.374h.057l.879-1.82c.055-.114 1.645 3.275 1.581 3.41zM57.613 19.655c-.114.173-.286.345-.572.345h-.172c-.286 0-.458-.173-.572-.345l-5.951-12.479c-.229-.403-.029-.776.458-.776h1.588c.372 0 .658.029.83.374l3.733 7.374h.057l3.562-7.374c.114-.23.286-.374.601-.374h1.903c.486 0 .658.374.458.776l-5.922 12.479z"/></g></g></svg>